<svg xmlns="http://www.w3.org/2000/svg" width="1200" height="630" viewBox="0 0 1200 630"><rect width="1200" height="630" fill="#f4f1e9"/><g stroke="#d3d8d1" stroke-width="1" stroke-dasharray="5 8" opacity=".8"><path d="M900 55v520M990 55v520M1080 55v520M870 160h290M870 295h290M870 430h290"/></g><path d="M895 505c44-91 72-131 117-182 35-40 55-83 78-137 18-43 38-73 66-101" fill="none" stroke="#087862" stroke-width="5" stroke-linecap="round"/><g fill="#087862"><circle cx="895" cy="505" r="9"/><circle cx="1012" cy="323" r="9"/><circle cx="1090" cy="186" r="9"/><circle cx="1156" cy="85" r="9"/></g><text x="64" y="86" fill="#0b1f33" font-family="Arial,sans-serif" font-size="28" font-weight="700">Abdulrahman Albeladi</text><text x="64" y="225" fill="#0b1f33" font-family="Georgia,serif" font-size="66" letter-spacing="-3">Applied AI, data systems</text><text x="64" y="302" fill="#0b1f33" font-family="Georgia,serif" font-size="66" letter-spacing="-3">&amp; rigorous analysis.</text><text x="64" y="394" fill="#40546a" font-family="Arial,sans-serif" font-size="27">Computer Science &amp; Mathematics · University of Maryland</text><line x1="64" y1="482" x2="700" y2="482" stroke="#d3d8d1" stroke-width="2"/><text x="64" y="531" fill="#087862" font-family="monospace" font-size="20" font-weight="700" letter-spacing="3">ML/AI · DATA · R&amp;D · CONSULTING</text></svg>